<svg id="Capa_1" data-name="Capa 1" xmlns="http://www.w3.org/2000/svg" viewBox="0 0 76.65 59.13"><defs><style>.cls-1{fill:#0a0a0a;}.cls-2{fill:#969292;}.cls-3{fill:#262626;}.cls-4{stroke:#fff;stroke-miterlimit:10;stroke-width:0.25px;}</style></defs><title>logo rav3n</title><polygon points="53.79 56.16 54.65 55.84 47.36 44.46 46.5 44.78 53.79 56.16"/><path class="cls-1" d="M576.65,262.56c5.3,3.33,6.75,10.55,3.25,16.12s-20.28,7.28-15.94,4c8.54-6.36-6.75-10.55-3.25-16.11S571.35,259.23,576.65,262.56Z" transform="translate(-514.91 -260.89)"/><rect x="560.04" y="302.53" width="0.64" height="17.02" transform="translate(683.59 109.65) rotate(156.29)"/><ellipse class="cls-1" cx="579.81" cy="269.96" rx="7.45" ry="1.65" transform="translate(-528.02 -230.73) rotate(-2.95)"/><path class="cls-2" d="M577.43,267c.12-.71,3.07-.74,6.58-.06s6.26,1.79,6.13,2.51-3.81,2.43-6.58.06C579,265.66,577.31,267.74,577.43,267Z" transform="translate(-514.91 -260.89)"/><path class="cls-2" d="M578.77,271.79c.09.71,3,.88,6.57.36s6.31-1.51,6.21-2.22-7.08-4.06-6.57-.37C585.23,271.4,578.67,271.07,578.77,271.79Z" transform="translate(-514.91 -260.89)"/><path d="M561.92,308.87c-12.12,5.26-24.65,3.31-28-4.36s13.65-17.23,15.92-23.42c7.32-20,24.65-3.31,28,4.36S574.05,303.61,561.92,308.87Z" transform="translate(-514.91 -260.89)"/><path d="M582.2,268.66c2.72,5.36,1.45,25.88-13.76,19.16-9.89-4.36-20.88,5.11-23.6-.25s6.31-10.54,13.77-19.17C567,258.75,579.49,263.29,582.2,268.66Z" transform="translate(-514.91 -260.89)"/><path class="cls-3" d="M544.36,287.44c-10.56,13.1-28.47,17.47-26.09,23s17.91,4.29,34.69-2.87,28.47-17.48,26.09-23.05S567.21,259.07,544.36,287.44Z" transform="translate(-514.91 -260.89)"/><circle class="cls-4" cx="59.17" cy="5.82" r="2.13"/><path d="M569.54,316.75l.71,0c.21,0,.46.11.51.36,0,0,0,0,0,0a.47.47,0,0,0-.44-.36l-.38,0-.42,0a0,0,0,0,0,0,0Z" transform="translate(-514.91 -260.89)"/><path d="M570.77,317.22c-.18-.17-.43-.13-.65-.16a2,2,0,0,1-.39-.13l-.38-.14s0,0,0,0l.36.14a2.6,2.6,0,0,0,.36.13c.23.05.5,0,.69.16,0,0,0,0,0,0Z" transform="translate(-514.91 -260.89)"/><path d="M569.3,316.86a1,1,0,0,1,.64.8h0c-.18-.35-.62-.47-.83-.8,0,0,0,0,0,0,.2.33.64.44.82.8,0,0,0,0,0,0a.94.94,0,0,0-.67-.82s0,0,0,0Z" transform="translate(-514.91 -260.89)"/><path d="M540.79,287c-10.2,13.88-28.29,18.91-25.61,24.62s18.48,3.93,35.3-4,28.29-18.91,25.61-24.61S562.86,257,540.79,287Z" transform="translate(-514.91 -260.89)"/><path d="M569.08,316.88a1.6,1.6,0,0,1,.29,1h0a2.72,2.72,0,0,0-.52-.94,0,0,0,1,0,0,0,2.87,2.87,0,0,1,.51.94s0,0,0,0a1.66,1.66,0,0,0-.29-1s0,0,0,0Z" transform="translate(-514.91 -260.89)"/><path d="M568.65,317a3.65,3.65,0,0,0,.18.93h0a2.63,2.63,0,0,0,.15-.79,0,0,0,1,0,0,0,2.57,2.57,0,0,1-.15.78h0a3.57,3.57,0,0,1-.18-.92s0,0,0,0Z" transform="translate(-514.91 -260.89)"/><path d="M564.19,318.8c.23,0,.47,0,.7.05s.47.11.51.35c0,0,0,0,0,0a.52.52,0,0,0-.44-.36l-.38,0-.42,0a0,0,0,1,0,0,0Z" transform="translate(-514.91 -260.89)"/><path d="M565.42,319.27c-.18-.17-.43-.12-.65-.16a1.76,1.76,0,0,1-.39-.12l-.39-.15s0,0,0,0l.36.14c.12,0,.23.09.36.12s.5,0,.69.16c0,0,0,0,0,0Z" transform="translate(-514.91 -260.89)"/><path d="M563.94,318.92a.94.94,0,0,1,.65.8h0c-.17-.36-.61-.47-.82-.8,0,0,0,0,0,0,.21.33.65.45.83.8,0,0,0,0,0,0a1,1,0,0,0-.67-.83s0,0,0,0Z" transform="translate(-514.91 -260.89)"/><path d="M563.73,318.93a1.55,1.55,0,0,1,.28,1h0a2.65,2.65,0,0,0-.51-.95s0,0,0,0a2.59,2.59,0,0,1,.5.94s0,0,0,0a1.63,1.63,0,0,0-.28-1s0,0,0,0Z" transform="translate(-514.91 -260.89)"/><path d="M563.29,319.08a4.18,4.18,0,0,0,.19.92s0,0,0,0a2.63,2.63,0,0,0,.15-.78,0,0,0,0,0,0,0,2.69,2.69,0,0,1-.15.78h0a4.18,4.18,0,0,1-.19-.92,0,0,0,0,0,0,0Z" transform="translate(-514.91 -260.89)"/></svg>